<svg version="1.1" id="Layer_1" xmlns="http://www.w3.org/2000/svg" x="0" y="0" width="300" height="300" viewBox="0 0 300 300" xml:space="preserve"><g fill-rule="evenodd" clip-rule="evenodd"><path fill="#FFE8BE" d="M151.112 40.931c103.307 0 63.045 171.193 0 171.193-59.545 0-103.308-171.193 0-171.193z"/><circle fill="#FFC200" cx="150" cy="150" r="150"/><path fill="#60350A" d="M220.813 97.021l-141.621.854s5.089 78.386-12.709 102.961h173.305c-4.469-6.556-16.278-8.666-18.975-103.815z"/><path fill="#D5E1ED" d="M88.033 221.354l34.981-15.474 56.069-1.455 36.022 18.919-26.009 54.442-36.955 19.844-38.229-21.115z"/><path fill="#F9DCA4" d="M120.115 187.766l62.773.408v43.438l-62.773-.408z"/><path opacity=".11" d="M182.9 188.245v17.374c0 1.441.092 3.669-.199 5.954-.27 2.119-.754 4.129-1.519 6.443-21.208 20.214-55.233 3.783-60.633-30.748l62.351.977z"/><path fill="#434955" d="M256.296 255.832C229.133 283.109 191.54 300 150 300c-42.253 0-80.42-17.479-107.683-45.59l5.928-15.042 44.188-20.005c15.836 29.027 33.059 55.939 59.793 75.02 27.443-22.356 44.884-48.634 57.482-73.588l39.534 18.702 7.054 16.335z"/><path fill="#F9DCA4" d="M92.771 117.392c-14.367 6.267-2.15 35.977 6.888 35.844-3.605-11.312-6.21-23.988-6.888-35.844zM211.199 117.387c14.367 6.271 2.15 35.976-6.886 35.844 3.603-11.307 6.208-23.983 6.886-35.844z"/><path fill="#FFE8BE" d="M151.041 42.068c42.338 0 60.083 30.098 61.17 64.885 1.489 47.624-27.547 104.037-61.17 104.037-31.838 0-61.675-58.347-59.867-106.455 1.268-33.748 18.514-62.467 59.867-62.467z"/><path fill="#464449" d="M162.131 121.274c5.848-3.432 14.724-6.789 25.353-4.821l.024.005c25.023 3.058 25.407 10.832 22.98 12.624-2.427 1.797-3.814 4.958-3.814 4.958-.536 5.006-2.292 9.979-5.103 14.189-3.809 5.698-9.55 10.021-16.82 11.221-.813.133-1.652.232-2.503.285-6.262.384-12.451-1.631-17.723-7.547-2.681-3.006-5.113-7.031-7.173-12.283l.005.019s-3.873-7.945-10.062-.555l.002-.005c-2.105 5.518-4.61 9.718-7.381 12.824-5.272 5.911-11.46 7.931-17.723 7.547a25.006 25.006 0 01-2.505-.285c-7.27-1.199-13.011-5.527-16.817-11.221-2.809-4.21-4.567-9.178-5.103-14.184v.005s-1.311-3.171-3.738-4.968c-2.427-1.792-2.062-9.581 22.957-12.634l.007-.005c10.688-1.967 19.602 1.451 25.44 4.907l-.007-.009.014.014c.36.213.707.422 1.043.635 2.574 1.398 9.628 4.195 18.652-.716h-.005zm-22.676 3.101c-6.677-3.698-17.313-6.936-29.89-1.228-7.338 3.328-9.576 5.674-6.731 15.35a27.268 27.268 0 003.456 7.442c3.212 4.802 8.017 8.448 14.061 9.448a21.3 21.3 0 002.085.232c5.065.313 10.091-1.342 14.402-6.172 2.453-2.754 4.693-6.519 6.596-11.505 3.297-8.637 4.189-9.045-3.979-13.567zm53.139-2.181c-12.228-4.494-22.371-.943-28.576 2.735-7.464 4.423-6.106 5.163-2.804 13.544 1.858 4.727 4.025 8.32 6.391 10.975 4.312 4.831 9.336 6.485 14.402 6.172a21.711 21.711 0 002.083-.232c6.044-1 10.849-4.641 14.063-9.448a27.29 27.29 0 003.321-6.992c3.406-10.923.369-13.36-8.88-16.754z"/><path fill="#8A5C42" d="M86.848 124.308c0-3.095 4.773-4.3 7.755 14.289 3.769-11.155 4.639-23.367 4.639-23.367 5.642 1.09 11.06 13.829 9.354 24.993 15.369-3.774 54.87-27.609 67.715-59.827 32.874 18.939 32.696 58.712 32.696 58.712s1.737-9.225 2.707-17.071c.322-2.612 1.42-3.556 3.875-1.034 17.777-36.815-10.252-93.096-63.662-93.968-73.337-1.199-82.672 78.221-65.079 97.273z"/><path fill="#FFF" d="M120.22 205.979s9.588 16.388 31.375 25.415l-20.432 29.828-28.718-47.482 17.775-7.761z"/><path fill="#FFF" d="M182.926 205.979s-9.59 16.388-31.375 25.415l20.432 29.828 28.898-46.937-17.955-8.306z"/><path fill="#434955" d="M151.569 251.082a4.074 4.074 0 11-.005 8.149 4.074 4.074 0 01.005-8.149z"/><circle fill="#434955" cx="151.569" cy="273.258" r="4.072"/><path fill="#464449" d="M203.87 120.084c8.661 3.456 8.343 7.67 6.637 8.936-2.427 1.792-3.814 4.958-3.814 4.958a32.145 32.145 0 01-2.823 10.126v-24.02zM99.652 141.825a32.029 32.029 0 01-1.865-7.841s-1.309-3.171-3.738-4.963c-1.635-1.209-2.003-5.144 5.604-8.519v21.323z"/></g></svg>