<svg version="1.1" id="Layer_1" xmlns="http://www.w3.org/2000/svg" x="0" y="0" width="300" height="300" viewBox="0 0 300 300" xml:space="preserve"><g fill-rule="evenodd" clip-rule="evenodd"><circle fill="#58B0E0" cx="150.002" cy="150" r="150"/><path fill="#F9DCA4" d="M112.893 187.77l77.219.588v62.709l-77.219-.588z"/><path fill="#E6E6E6" d="M213.455 285.948C194.18 294.956 172.681 300 150.002 300c-22.11 0-43.102-4.789-62.002-13.373V235.04h125.456v50.908z"/><path fill="#E9573E" d="M162.152 299.516c-4.006.322-8.06.484-12.15.484-3.091 0-6.158-.096-9.202-.275l5.006-43.633h11.699l4.647 43.424z"/><path fill="#677079" d="M124.549 297.735c-16.165-3.016-32.492-8.609-47.363-16.574a150.733 150.733 0 01-38.138-30.217l6.234-15.052 67.596-30.155c0 25.305 8.306 65.449 11.671 91.998z"/><path opacity=".11" d="M190.126 188.149v15.691c-22.973 26.822-66.861 23.03-76.698-16.569l76.698.878z"/><path fill="#FFE8BE" d="M151.111 40.933c103.308 0 63.05 171.194 0 171.194-59.542 0-103.302-171.194 0-171.194z"/><path fill="#F9DCA4" d="M89.151 116.727c-14.9 6.5-2.228 37.313 7.144 37.176-3.74-11.729-6.437-24.877-7.144-37.176zM214.275 116.724c14.899 6.5 2.232 37.316-7.145 37.176 3.741-11.728 6.443-24.876 7.145-37.176z"/><path fill="#464449" d="M106.464 69.552c-16.189 16.787-10.491 63.252-10.491 63.252l-5.096-2.399c-31.814-123.278 153.563-123.281 121.568 0l-5.097 2.399s5.698-46.466-10.49-63.252c-19.991 19.397-70.512 19.29-90.394 0z"/><path fill="#677079" d="M178.483 297.297c17.266-3.375 32.412-9.32 45.003-16.496 13.486-7.689 26.045-17.02 39.503-32.133l-5.29-12.776-67.597-30.155c.001 25.305-8.252 65.023-11.619 91.56z"/><path fill="#FFF" d="M190.112 203.789l-38.479 31.388 31.909 28.7c0-.001 8.504-47.104 6.57-60.088z"/><path fill="#FFF" d="M112.878 203.789l38.783 31.388-32.26 28.7c0-.001-8.471-47.104-6.523-60.088z"/><path fill="#E9573E" d="M136.453 248.678l15.227-13.681 15.227 13.681-15.227 13.672z"/><path fill="#434955" d="M125.081 297.928a149.004 149.004 0 01-18.341-4.271c-.36-.279-.55-.449-.55-.449L89.024 262.18l22.048-15.815H88l4.939-33.26 19.954-12.615c.862 35.767 8.532 75.997 12.188 97.438zM177.891 297.411c2.854-.479 5.68-1.137 8.481-1.861 3.313-.859 6.599-1.836 9.874-2.813l.649-.209 17.043-30.656-22.044-15.734h23.068l-4.936-33.1-19.953-12.548c-.861 35.587-8.532 75.589-12.182 96.921z"/></g></svg>