<svg version="1.1" id="Layer_1" xmlns="http://www.w3.org/2000/svg" xmlns:xlink="http://www.w3.org/1999/xlink" x="0" y="0" width="300" height="300" viewBox="0 0 300 300" xml:space="preserve"><circle fill-rule="evenodd" clip-rule="evenodd" fill="#E9573E" cx="150" cy="150" r="150"/><path fill-rule="evenodd" clip-rule="evenodd" fill="#F9DCA4" d="M112.891 187.766l77.217.725v17.555l33.99 16.208-76.151 71.451-65.346-74.466 30.29-12.89z"/><path fill-rule="evenodd" clip-rule="evenodd" fill="#677079" d="M259.603 252.39C232.226 281.682 193.256 300 150 300c-6.307 0-12.522-.398-18.626-1.152-18.358-2.603-37.218-8.6-54.188-17.688a150.648 150.648 0 01-38.141-30.221l6.231-15.051 54.991-24.528c4.248 22.016 20.555 55.996 49.397 75.252 28.804-17.033 48.821-48.027 53.675-74.361l48.85 23.802 7.414 16.337z"/><defs><path id="SVGID_1_" d="M259.603 252.39C232.226 281.682 193.256 300 150 300c-6.307 0-12.522-.398-18.626-1.152-18.358-2.603-37.218-8.6-54.188-17.688a150.648 150.648 0 01-38.141-30.221l6.231-15.051 54.991-24.528c4.248 22.016 20.555 55.996 49.397 75.252 28.804-17.033 48.821-48.027 53.675-74.361l48.85 23.802 7.414 16.337z"/></defs><clipPath id="SVGID_2_"><use xlink:href="#SVGID_1_" overflow="visible"/></clipPath><path opacity=".11" fill-rule="evenodd" clip-rule="evenodd" d="M193.161 207.501c3.534 1.683 9.578 4.499 10.164 4.845-9.854 30.914-76.312 42.234-95.902-3.669l85.738-1.176z"/><path fill-rule="evenodd" clip-rule="evenodd" fill="#FFE8BE" d="M151.112 40.931c103.307 0 63.045 171.193 0 171.193-59.545 0-103.308-171.193 0-171.193z"/><path fill-rule="evenodd" clip-rule="evenodd" fill="#F9DCA4" d="M89.152 116.723c-14.902 6.5-2.23 37.313 7.142 37.176-3.738-11.728-6.44-24.874-7.142-37.176zM214.273 116.723c14.902 6.5 2.23 37.313-7.142 37.176 3.736-11.733 6.441-24.878 7.142-37.176z"/><path fill-rule="evenodd" clip-rule="evenodd" fill="#AD835F" d="M113.576 74.935c-2.875 13.435-1.868 26.793-14.604 29.259-3.029.588-5.037 4.688-5.689 8.306-1.654 9.183-2.356 21.176-1.849 23.94.505 2.759-1.92-5.305-1.92-5.305l-.413-15.407s-.18-2.953-.109-7.447c.145-9.13 1.18-23.931 5.802-28.448 6.902-6.752 18.782-4.898 18.782-4.898zM189.781 74.935c2.875 13.435 1.868 26.793 14.604 29.259 3.029.588 5.037 4.688 5.689 8.306 1.654 9.183 2.02 21.257 1.512 24.016-.505 2.759 1.92-5.305 1.92-5.305l.806-15.426s.121-3.01.052-7.504c-.142-9.13-1.181-23.931-5.803-28.448-6.903-6.752-18.78-4.898-18.78-4.898z"/><path fill-rule="evenodd" clip-rule="evenodd" fill="#60350A" d="M123.128 225.615c-7.329-7.073-13.193-12.558-18.515-18.048-6.822-7.044-9.133-14.188-10.455-26.689-2.387-22.556-4.388-31.008-5.063-65.198 0 0 5.016 30.743 14.375 45.903 4.805 7.779 24.464-10.515 32.308-13.292 10.681-3.788 15.725 3.792 15.725 3.792s4.918-7.58 15.599-3.792c7.844 2.778 27.235 18.408 32.31 13.292 12.209-12.311 14.84-45.856 14.84-45.856-1.773 38.674-2.46 43.13-5.478 65.904-1.763 13.326-2.657 18.488-7.217 23.708-4.724 5.4-9.697 10.453-22.182 20.352-4.02 3.186-11.007 6.177-28.801 6.073-16.533-.1-23.317-2.167-27.446-6.149zM192.253 77.656c5.907-.232 10.259.688 13.397 5.955 7.554 12.686 8.183 14.316 8.183 14.316s-.896-22.684-1.437-25.381c1.484-1.422 4.184-.948 4.724.133s-2.155-22.812-16.189-27.401c-5.127-14.572-23.075-25.367-23.075-25.367l-.811 8.097s-4.238-17.146-25.559-20.119c3.238 3.646 2.462 6.31 2.462 6.31s-6.784-3.205-15.961-3.072c.676 4.319-4.316 8.908-4.316 8.908s-3.1-4.722-15.383-6.343c-2.162 7.827-6.212 9.178-10.124 12.823-3.913 3.641-9.033 10.794-9.033 10.794s.4-7.557 3.101-9.718c1.017-.668-22.893 8.751-10.93 43.865-3.973.668-7.284 1.024-9.446 7.097 6.749 1.887 3.958 12.089 7.734 18.697 2.655-7.67 4.414-22.608 21.013-18.697 11.882 2.802 23.291 8.808 36.986 9.287 19.359.672 26.707-9.487 44.664-10.184z"/><path fill-rule="evenodd" clip-rule="evenodd" fill="#FFE8BE" d="M157.355 187.349s7.308 1.1 10.747-2.854c3.499-4.03 6.343-9.751 1.041-12.833-5.3-3.081-12.06-7.144-17.379-7.144-5.303 0-11.932 3.92-17.495 7.14-6.507 3.759-2.522 8.808.977 12.837 3.439 3.954 10.747 2.854 10.747 2.854-3.941-13.71 15.301-13.71 11.362 0z"/></svg>