<svg version="1.1" id="fi_245914" xmlns="http://www.w3.org/2000/svg" x="0" y="0" viewBox="0 0 512 512" xml:space="preserve"><path fill="#e9ebef" d="M12.8 166.4h486.4v332.8H12.8z"/><path fill="#ffb7b2" d="M12.8 64h486.4v102.4H12.8z"/><path d="M486.4 51.2h-51.2V38.4c0-21.205-17.195-38.4-38.4-38.4s-38.4 17.195-38.4 38.4v12.8H153.6V38.4c0-21.205-17.195-38.4-38.4-38.4S76.8 17.195 76.8 38.4v12.8H25.6C11.46 51.2 0 62.66 0 76.8v409.6C0 500.54 11.46 512 25.6 512h460.8c14.14 0 25.6-11.46 25.6-25.6V76.8c0-14.14-11.46-25.6-25.6-25.6zM384 38.4c0-7.057 5.743-12.8 12.8-12.8s12.8 5.743 12.8 12.8v12.8H384V38.4zm-281.6 0c0-7.057 5.743-12.8 12.8-12.8S128 31.343 128 38.4v12.8h-25.6V38.4zm19.2 448h-96v-85.333h96V486.4zm0-110.933h-96v-85.333h96v85.333zm0-110.934h-96V179.2h96v85.333zM243.2 486.4h-96v-85.333h96V486.4zm0-110.933h-96v-85.333h96v85.333zm0-110.934h-96V179.2h96v85.333zM364.8 486.4h-96v-85.333h96V486.4zm0-110.933h-96v-85.333h96v85.333zm0-110.934h-96V179.2h96v85.333zM486.4 486.4h-96v-85.333h96V486.4zm0-110.933h-96v-85.333h96v85.333zm0-110.934h-96V179.2h96v85.333zm0-110.933H25.6V76.8h460.8v76.8z" fill="#573a32"/></svg>