<svg version="1.1" id="fi_245919" xmlns="http://www.w3.org/2000/svg" x="0" y="0" viewBox="0 0 512 512" xml:space="preserve"><path d="M364.962 395.102l-7.202-2.671-3.413 6.886c-13.457 27.093-30.652 52.267-51.106 74.82l-18.56 20.463 26.871-6.434c38.733-9.276 74.897-28.416 104.593-55.33l8.619-7.817-10.044-5.888c-17.519-10.239-33.792-18.098-49.758-24.029z" fill="#538489"/><path d="M387.601 268.476c-1.425 37.419-9.139 73.737-22.912 107.938l-3.26 8.098 8.175 3.072c17.98 6.75 35.977 15.676 55.023 27.273l6.127 3.738 4.736-5.393c35.482-40.457 55.817-90.232 58.786-143.932l.486-9.003H387.917l-.316 8.209z" fill="#6fb0b6"/><path d="M345.088 399.147l4.787-9.318-10.095-2.807c-22.835-6.34-46.601-10.069-70.622-11.076l-8.892-.367v127.377l14.234-12.791c29.398-26.429 53.146-57.047 70.588-91.018z" fill="#538489"/><path d="M339.78 124.979l10.095-2.807-4.787-9.318c-17.442-33.963-41.19-64.58-70.588-91.008L260.267 9.054v127.377l8.892-.375c24.021-1.016 47.786-4.737 70.621-11.077z" fill="#a9d0d3"/><path d="M369.604 124.407l-8.175 3.072 3.26 8.098c13.773 34.21 21.487 70.528 22.912 107.938l.316 8.209h106.846l-.495-9.011c-2.97-53.7-23.296-103.475-58.786-143.94l-4.736-5.402-6.127 3.738c-19.021 11.614-37.018 20.54-55.015 27.298z" fill="#8cc0c5"/><path d="M345.719 379.716l7.356 2.116 2.901-7.074c13.722-33.459 21.461-68.983 22.989-105.6l.367-8.892H260.267v106.837l8.209.307c26.419 1.008 52.411 5.147 77.243 12.306z" fill="#6fb0b6"/><path d="M378.965 242.842c-1.527-36.617-9.267-72.141-22.989-105.6l-2.901-7.074-7.356 2.116c-24.841 7.159-50.825 11.298-77.244 12.305l-8.209.307v106.837H379.34l-.375-8.891z" fill="#8cc0c5"/><path d="M354.347 112.691l3.413 6.886 7.202-2.671c15.966-5.931 32.239-13.79 49.766-24.03l10.052-5.871-8.619-7.817c-29.696-26.923-65.869-46.054-104.602-55.33l-26.88-6.451 18.56 20.463c20.456 22.555 37.651 47.728 51.108 74.821z" fill="#a9d0d3"/><path d="M133.035 269.158c1.527 36.617 9.267 72.141 22.989 105.6l2.901 7.074 7.356-2.116c24.841-7.159 50.825-11.298 77.244-12.305l8.209-.307V260.267H132.659l.376 8.891z" fill="#6fb0b6"/><path d="M166.281 132.284l-7.356-2.116-2.901 7.074c-13.722 33.459-21.461 68.983-22.989 105.6l-.375 8.892h119.074V144.896l-8.209-.307c-26.42-1.007-52.412-5.146-77.244-12.305z" fill="#8cc0c5"/><path d="M166.912 112.853l-4.787 9.318 10.095 2.807c22.835 6.34 46.601 10.069 70.622 11.076l8.892.375V9.054L237.5 21.845c-29.398 26.42-53.146 57.037-70.588 91.008z" fill="#a9d0d3"/><path d="M124.399 243.524c1.425-37.419 9.139-73.737 22.912-107.938l3.26-8.098-8.175-3.072c-17.997-6.758-35.994-15.684-55.023-27.281l-6.127-3.738-4.736 5.402c-35.482 40.465-55.817 90.24-58.786 143.94l-.486 8.994h106.846l.315-8.209z" fill="#8cc0c5"/><g fill="#538489"><path d="M172.22 387.021l-10.095 2.807 4.787 9.318c17.442 33.963 41.19 64.58 70.588 91.008l14.234 12.791V375.578l-8.892.375c-24.022 1.007-47.787 4.728-70.622 11.068zM157.653 399.309l-3.413-6.886-7.202 2.671c-15.966 5.931-32.239 13.79-49.766 24.03l-10.044 5.871 8.619 7.817c29.696 26.914 65.86 46.054 104.593 55.33l26.871 6.434-18.56-20.463c-20.446-22.538-37.641-47.711-51.098-74.804z"/></g><path d="M147.038 116.898l7.202 2.671 3.413-6.886c13.457-27.093 30.652-52.267 51.106-74.82l18.56-20.463-26.871 6.443c-38.733 9.276-74.897 28.416-104.593 55.33l-8.619 7.817 10.044 5.87c17.519 10.248 33.792 18.107 49.758 24.038z" fill="#a9d0d3"/><path d="M142.396 387.593l8.175-3.072-3.26-8.098c-13.773-34.21-21.487-70.528-22.912-107.938l-.316-8.218H17.237l.495 9.011c2.97 53.7 23.296 103.475 58.786 143.932l4.736 5.393 6.127-3.738c19.03-11.597 37.026-20.523 55.015-27.272z" fill="#6fb0b6"/><path d="M256 0C114.62 0 0 114.62 0 256s114.62 256 256 256 256-114.62 256-256S397.38 0 256 0zm-53.564 32.145c-20.804 22.946-38.502 48.717-52.42 76.757-16.956-6.298-32.998-14.379-48.427-23.398 28.194-25.566 62.644-44.211 100.847-53.359zM82.927 104.414c17.869 10.897 36.599 20.531 56.465 27.989-13.875 34.458-22.033 71.731-23.526 110.805H26.249c2.935-53.034 23.756-101.256 56.678-138.794zM26.249 268.8h89.617c1.493 39.074 9.651 76.348 23.526 110.805-19.866 7.45-38.596 17.084-56.465 27.981-32.922-37.538-53.743-85.76-56.678-138.786zm75.34 157.705c15.428-9.02 31.471-17.101 48.427-23.398 13.918 28.032 31.616 53.811 52.42 76.757-38.203-9.157-72.653-27.802-100.847-53.359zM243.2 483.806c-27.904-25.079-51.422-54.903-68.702-88.559 22.016-6.118 44.996-9.788 68.702-10.778v99.337zm0-124.928c-27.409 1.041-53.965 5.342-79.283 12.638-13.099-31.932-20.847-66.475-22.357-102.724H243.2v90.086zm0-115.678H141.559c1.51-36.25 9.259-70.793 22.357-102.724 25.318 7.296 51.874 11.597 79.283 12.638V243.2zm0-115.678c-23.697-.99-46.686-4.659-68.702-10.778 17.28-33.647 40.798-63.471 68.702-88.55v99.328zm167.219-42.027c-15.428 9.02-31.471 17.101-48.427 23.398-13.918-28.032-31.616-53.811-52.42-76.757 38.195 9.157 72.645 27.802 100.847 53.359zM268.8 28.194c27.904 25.079 51.422 54.903 68.702 88.559-22.016 6.118-44.996 9.788-68.702 10.778V28.194zm0 124.928c27.409-1.041 53.965-5.342 79.283-12.638 13.099 31.932 20.847 66.475 22.357 102.724H268.8v-90.086zm0 115.678h101.641c-1.51 36.25-9.259 70.793-22.357 102.724-25.318-7.296-51.874-11.597-79.283-12.638V268.8zm0 215.006v-99.328c23.697.99 46.686 4.659 68.702 10.778-17.28 33.646-40.798 63.47-68.702 88.55zm40.764-3.951c20.804-22.946 38.502-48.717 52.42-76.757 16.956 6.298 32.998 14.379 48.427 23.398-28.194 25.566-62.644 44.211-100.847 53.359zm119.509-72.269c-17.869-10.897-36.599-20.531-56.465-27.981 13.875-34.458 22.033-71.731 23.526-110.805h89.617c-2.935 53.026-23.756 101.248-56.678 138.786zM396.134 243.2c-1.493-39.074-9.651-76.348-23.526-110.805 19.866-7.45 38.596-17.084 56.465-27.989 32.93 37.547 53.743 85.769 56.678 138.786h-89.617v.008z" fill="#573a32"/></svg>