<svg version="1.1" id="fi_245915" xmlns="http://www.w3.org/2000/svg" x="0" y="0" viewBox="0 0 512 512" xml:space="preserve"><path d="M229.453 13.141l-13.466-.708v255.821h-.009l.009.017 108.834 231.262 11.904-6.4c83.106-44.715 134.733-130.876 134.733-224.853C471.45 132.318 365.15 20.25 229.453 13.141z" fill="#ff877f"/><path d="M40.158 268.254l1.084 13.798c7.1 90.641 83.857 161.647 174.746 161.647 20.804 0 41.626-3.917 61.858-11.631l12.902-4.915-74.761-158.882-175.829-.017z" fill="#a0bf7c"/><path d="M215.987 92.442l-13.798 1.084c-85.077 6.673-154.257 75.861-160.939 160.922l-1.084 13.798 175.821.017V92.442z" fill="#fedea1"/><path d="M215.987 456.499c24.141 0 47.027-4.898 68.207-13.218l28.877 61.363a12.82 12.82 0 0011.588 7.355c1.877 0 3.738-.401 5.461-1.229 93.628-44.126 154.129-139.324 154.129-242.5C484.25 120.354 363.913 0 215.987 0c-7.074 0-12.8 5.726-12.8 12.8v67.874C105.225 87.287 27.75 168.627 27.75 268.271c0 103.953 84.276 188.228 188.237 188.228zm12.8-430.575C356.659 32.623 458.65 138.752 458.65 268.271c0 89.054-49.835 171.529-128 213.572L228.787 265.421V25.924zm-25.6 80.359v149.171H53.999c6.246-79.463 69.726-142.942 149.188-149.171zm4.659 174.771l65.442 139.051c-17.852 6.818-37.077 10.795-57.301 10.795-85.367 0-155.426-66.142-161.988-149.854h153.847v.008z" fill="#573a32"/></svg>