<svg version="1.1" id="fi_245932" xmlns="http://www.w3.org/2000/svg" x="0" y="0" viewBox="0 0 512 512" xml:space="preserve"><circle cx="409.6" cy="76.8" r="64" fill="#fedea1"/><path d="M499.2 281.6c0-58.675-72.286-142.882-72.286-142.882l-77.713-39.714S307.396 89.6 281.6 89.6c-23.808 0-47.77 3.703-71.339 11.017L121.6 36.975l-6.4 121.685c-17.186 18.022-30.165 37.803-38.699 58.94H12.8v128h63.906c10.633 26.479 27.614 50.475 49.775 70.409-7.228 8.943-11.281 20.138-11.281 31.991 0 28.237 22.963 51.2 51.2 51.2 22.528 0 41.702-14.626 48.529-34.876 21.589 6.161 43.947 9.276 66.671 9.276 22.724 0 45.082-3.115 66.662-9.276 6.835 20.25 26.01 34.876 48.538 34.876 28.237 0 51.2-22.963 51.2-51.2 0-11.853-4.053-23.049-11.281-31.991C476.612 380.203 499.2 331.955 499.2 281.6z" fill="#ffb7b2"/><g fill="#573a32"><circle cx="179.2" cy="230.4" r="25.6"/><path d="M449.869 141.909c21.811-13.551 36.454-37.589 36.454-65.109 0-42.351-34.449-76.8-76.8-76.8s-76.8 34.449-76.8 76.8c0 1.749.128 3.473.247 5.197-16.537-3.362-33.715-5.197-51.37-5.197-22.886 0-45.892 3.243-68.565 9.643l-69.043-55.236a25.608 25.608 0 00-27.077-3.081A25.604 25.604 0 00102.4 51.2v102.417c-14.464 15.872-25.941 33.007-34.313 51.183H25.6C11.46 204.8 0 216.26 0 230.4v102.4c0 14.14 11.46 25.6 25.6 25.6h42.675c9.958 21.888 24.038 42.01 41.634 59.537-4.873 9.088-7.509 19.362-7.509 30.063 0 35.294 28.715 64 64 64 23.868 0 44.732-13.141 55.731-32.563 19.388 4.625 39.296 6.963 59.469 6.963s40.081-2.338 59.469-6.963C352.068 498.859 372.932 512 396.8 512c35.285 0 64-28.706 64-64 0-10.692-2.637-20.966-7.492-30.046C490.897 380.604 512 332.134 512 281.6c0-53.956-23.637-103.074-62.131-139.691zM409.523 25.6c28.279 0 51.2 22.921 51.2 51.2 0 21.461-13.252 39.74-31.974 47.343-20.301-15.019-43.546-26.999-68.83-35.149-.981-3.917-1.596-7.97-1.596-12.194 0-28.279 22.921-51.2 51.2-51.2zm7.723 389.999c10.76 6.81 17.954 18.731 17.954 32.401 0 21.205-17.195 38.4-38.4 38.4s-38.4-17.195-38.4-38.4c0-.128.034-.239.034-.358-23.74 8.422-49.638 13.158-76.834 13.158s-53.094-4.736-76.834-13.158c0 .119.034.23.034.358 0 21.205-17.195 38.4-38.4 38.4S128 469.205 128 448c0-13.67 7.194-25.591 17.954-32.401-28.185-21.862-49.254-50.441-60.348-82.799H25.6V230.4h59.793c8.508-24.994 23.475-47.411 42.607-66.534V51.2l79.65 63.718c22.997-7.825 47.778-12.518 73.95-12.518 113.109 0 204.8 80.23 204.8 179.2 0 53.385-26.829 101.171-69.154 133.999z"/></g></svg>