<svg version="1.1" id="fi_245920" xmlns="http://www.w3.org/2000/svg" x="0" y="0" viewBox="0 0 512 512" xml:space="preserve"><path fill="#919cb0" d="M12.8 12.8h486.4V448H12.8z"/><path fill="#a7b0c0" d="M89.6 89.6h332.8v281.6H89.6z"/><circle cx="192.486" cy="230.4" r="51.2" fill="#919cb0"/><g fill="#573a32"><path d="M486.4 0H25.6C11.46 0 0 11.46 0 25.6v409.6c0 14.14 11.46 25.6 25.6 25.6h460.8c14.14 0 25.6-11.46 25.6-25.6V25.6C512 11.46 500.54 0 486.4 0zm0 435.2H25.6V25.6h460.8v409.6zM51.2 486.4H128V512H51.2zM384 486.4h76.8V512H384z"/><path d="M192 166.4c-35.345 0-64 28.655-64 64s28.655 64 64 64 64-28.655 64-64-28.655-64-64-64zm36.045 76.8c-5.299 14.865-19.379 25.6-36.045 25.6-21.171 0-38.4-17.229-38.4-38.4S170.829 192 192 192c16.666 0 30.737 10.735 36.045 25.6H204.8v25.6h23.245z"/><path d="M102.4 384h307.2c14.14 0 25.6-11.46 25.6-25.6v-25.6h25.6v-25.6h-25.6V153.6h25.6V128h-25.6v-25.6c0-14.14-11.46-25.6-25.6-25.6H102.4c-14.14 0-25.6 11.46-25.6 25.6v256c0 14.14 11.46 25.6 25.6 25.6zm0-281.6h307.2v256H102.4v-256z"/></g></svg>