<svg version="1.1" id="fi_245916" xmlns="http://www.w3.org/2000/svg" x="0" y="0" viewBox="0 0 512 512" xml:space="preserve"><g fill="#6d7584"><path d="M115.2 140.8h115.2v358.4H115.2zM281.6 140.8h115.2v358.4H281.6z"/></g><g fill="#bdc4d0"><path d="M64 140.8h51.2v358.4H64zM396.8 140.8H448v358.4h-51.2zM230.4 140.8h51.2v358.4h-51.2z"/></g><path fill="#e9ebef" d="M436.89 140.8l6.144-24.03L256.009 14.524 68.13 116.762l6.119 24.038z"/><path d="M499.2 153.6c7.074 0 12.8-5.726 12.8-12.8 0-7.074-5.726-12.8-12.8-12.8h-8.422L256 0 20.343 128H12.8C5.726 128 0 133.726 0 140.8c0 7.074 5.726 12.8 12.8 12.8h38.4v332.8H12.8c-7.074 0-12.8 5.726-12.8 12.8 0 7.074 5.726 12.8 12.8 12.8h486.4c7.074 0 12.8-5.726 12.8-12.8 0-7.074-5.726-12.8-12.8-12.8h-38.4V153.6h38.4zM102.4 486.4H76.8V153.6h25.6v332.8zm115.2 0H128V153.6h89.6v332.8zm51.2 0h-25.6V153.6h25.6v332.8zm115.2 0h-89.6V153.6H384v332.8zm51.2 0h-25.6V153.6h25.6v332.8zM74.249 128L256 29.099 436.89 128H74.249z" fill="#573a32"/></svg>