<svg version="1.1" id="fi_245936" xmlns="http://www.w3.org/2000/svg" x="0" y="0" viewBox="0 0 512 512" xml:space="preserve"><path d="M276.301 12.8L7.501 281.6 230.4 504.508l268.8-268.809V12.8H276.301zm133.299 128c-21.205 0-38.4-17.195-38.4-38.4S388.395 64 409.6 64 448 81.195 448 102.4s-17.195 38.4-38.4 38.4z" fill="#788f5d"/><g fill="#573a32"><path d="M486.4 0H281.6a25.598 25.598 0 00-18.099 7.501l-256 256c-10.001 10.001-10.001 26.197 0 36.198l204.8 204.8c10.001 10.001 26.197 10.001 36.198 0l256-256A25.618 25.618 0 00512 230.4V25.6C512 11.46 500.54 0 486.4 0zm0 230.4l-256 256L25.6 281.6l256-256h204.8v204.8z"/><path d="M409.6 153.6c28.271 0 51.2-22.929 51.2-51.2s-22.929-51.2-51.2-51.2c-28.279 0-51.2 22.929-51.2 51.2s22.921 51.2 51.2 51.2zm0-76.8c14.14 0 25.6 11.452 25.6 25.6S423.74 128 409.6 128c-14.148 0-25.6-11.46-25.6-25.6s11.452-25.6 25.6-25.6zM243.891 158.421c0-6.699-4.113-10.701-10.999-10.701-6.81 0-10.709 3.9-10.709 10.701v12.774c-16.589 1.101-30.49 6.374-41.387 15.727-12.715 11.051-19.149 25.899-19.149 44.151 0 15.727 5.76 28.604 17.109 38.246 9.549 8.201 24.149 14.771 43.426 19.575v82.85c-11.699-1.604-20.975-5.171-27.597-10.65-9.404-7.927-14.071-19.977-13.884-35.823 0-4.275-1.212-7.646-3.499-9.924-4.429-4.898-12.51-4.753-16.64-.128-2.415 2.398-3.635 5.803-3.635 10.052 0 24.798 7.475 43.247 22.289 54.929 10.146 7.603 24.585 12.476 42.974 14.498v18.577c0 6.997 3.9 10.999 10.709 10.999 6.989 0 10.999-4.002 10.999-10.999v-18.253c17.212-1.826 31.915-7.851 43.733-17.929 13.5-11.648 20.335-26.701 20.335-44.749 0-16.922-5.973-30.404-17.741-40.047-9.515-7.953-24.687-14.797-46.336-20.949v-77.124c8.166.896 14.916 3.251 20.079 7.023 7.697 5.751 11.716 14.097 12.254 25.378 0 4.275 1.323 7.748 3.925 10.325 4.983 5.026 13.073 4.574 17.109 0 2.603-2.577 3.925-6.05 3.925-10.325 0-16.247-5.623-29.602-16.759-39.697-10.334-9.148-23.953-14.421-40.525-15.676v-12.834h-.006zm-21.717 106.957c-12.322-3.601-21.325-8.277-26.778-13.901-5.726-5.897-8.516-13.252-8.516-22.477 0-11.204 4.198-19.797 12.834-26.274 6.289-4.676 13.824-7.603 22.451-8.721v71.373h.009zm51.012 42.897c6.127 5.402 9.225 14.097 9.225 25.847 0 11.776-4.659 20.847-14.302 27.75-6.827 5.026-14.959 8.329-24.226 9.796V295.32c14.267 3.901 24.115 8.253 29.303 12.955z"/></g></svg>