<svg version="1.1" id="fi_245908" xmlns="http://www.w3.org/2000/svg" x="0" y="0" viewBox="0 0 512 512" xml:space="preserve"><path d="M60.442 140.8L12.8 104.841V435.2c0 35.294 28.706 64 64 64h422.4V140.8H60.442z" fill="#9a8984"/><path d="M422.4 12.8H76.8c-35.294 0-64 28.706-64 64 0 16.913 9.242 41.958 47.642 64H422.4v-128z" fill="#bcb0ad"/><circle cx="409.6" cy="320" r="38.4" fill="#fedea1"/><g fill="#573a32"><path d="M409.6 371.2c28.279 0 51.2-22.921 51.2-51.2 0-28.279-22.921-51.2-51.2-51.2-28.279 0-51.2 22.921-51.2 51.2 0 28.279 22.921 51.2 51.2 51.2zm0-76.8c14.114 0 25.6 11.486 25.6 25.6s-11.486 25.6-25.6 25.6S384 334.114 384 320s11.486-25.6 25.6-25.6z"/><path d="M486.4 128h-51.2V25.6c0-14.14-11.46-25.6-25.6-25.6H76.8C34.449 0 0 34.449 0 76.8v358.4C0 477.619 34.381 512 76.8 512h409.6c14.14 0 25.6-11.46 25.6-25.6V153.6c0-14.14-11.46-25.6-25.6-25.6zM76.8 25.6h332.8V128H76.8c-28.279 0-51.2-22.921-51.2-51.2s22.921-51.2 51.2-51.2zm409.6 460.8H76.8c-28.228 0-51.2-22.972-51.2-51.2V133.623c13.619 12.28 31.462 19.977 51.2 19.977h409.6v332.8z"/></g></svg>
